<svg width="33" height="33" viewBox="0 0 33 33" fill="none" xmlns="http://www.w3.org/2000/svg">
<mask id="mask0_3_112" style="mask-type:alpha" maskUnits="userSpaceOnUse" x="0" y="0" width="33" height="33">
<path d="M32.4249 16.4071C32.436 7.57051 25.2815 0.398112 16.4449 0.387055C7.60838 0.375998 0.435983 7.53047 0.424926 16.367C0.413869 25.2036 7.56834 32.376 16.4049 32.387C25.2414 32.3981 32.4138 25.2436 32.4249 16.4071Z" fill="white"/>
</mask>
<g mask="url(#mask0_3_112)">
<path d="M32.4449 0.407075L0.444946 0.367035L0.404906 32.367L32.4049 32.4071L32.4449 0.407075Z" fill="#064061"/>
<path d="M16.6028 5.0287C7.87336 6.40012 1.90847 14.5885 3.27989 23.318C4.65131 32.0475 12.8397 38.0124 21.5692 36.641C30.2987 35.2695 36.2636 27.0811 34.8921 18.3517C33.5207 9.62217 25.3323 3.65728 16.6028 5.0287Z" fill="#98DAFF"/>
<path d="M7.54993 18.2311C7.56425 19.1151 8.04618 19.9552 8.88969 20.5668C9.7332 21.1783 10.8692 21.5111 12.0478 21.492C13.2264 21.4729 14.351 21.1035 15.1743 20.4649C15.9975 19.8264 16.452 18.9711 16.4376 18.0871" fill="#064061"/>
<path d="M8.82547 14.6545C8.81751 14.1636 8.51263 13.7705 8.14449 13.7765C7.77634 13.7825 7.48435 14.1852 7.49231 14.6761C7.50026 15.1669 7.80515 15.56 8.17329 15.554C8.54143 15.5481 8.83342 15.1453 8.82547 14.6545Z" fill="#064061"/>
<path d="M15.9356 14.5393C15.9277 14.0484 15.6228 13.6553 15.2547 13.6613C14.8865 13.6673 14.5945 14.07 14.6025 14.5609C14.6104 15.0517 14.9153 15.4448 15.2835 15.4388C15.6516 15.4329 15.9436 15.0301 15.9356 14.5393Z" fill="#064061"/>
</g>
</svg>
